<svg  viewBox="0 0 24 24" fill="none" xmlns="http://www.w3.org/2000/svg">
<path d="M20.8667 14.9648H3.13294C2.46627 14.9648 1.92383 14.4224 1.92383 13.7557V10.2435C1.92383 9.57685 2.46627 9.03418 3.13294 9.03418H20.8665C21.5332 9.03418 22.0756 9.57662 22.0756 10.2435V13.7557C22.0756 14.4224 21.5332 14.9648 20.8665 14.9648H20.8667ZM3.13294 9.16929C2.54072 9.16929 2.05894 9.65107 2.05894 10.2435V13.7557C2.05894 14.348 2.54072 14.8297 3.13294 14.8297H20.8665C21.4587 14.8297 21.9405 14.348 21.9405 13.7557V10.2435C21.9405 9.65107 21.4587 9.16929 20.8665 9.16929H3.13294Z" fill="black"/>
<path d="M20.3176 13.1709H3.68164V13.306H20.3176V13.1709Z" fill="black"/>
<path d="M20.9697 14.2293C20.7672 14.2293 20.6025 14.0647 20.6025 13.8622C20.6025 13.6598 20.7672 13.4951 20.9697 13.4951C21.1721 13.4951 21.3368 13.6598 21.3368 13.8622C21.3368 14.0647 21.1721 14.2293 20.9697 14.2293ZM20.9697 13.6304C20.8419 13.6304 20.7377 13.7344 20.7377 13.8624C20.7377 13.9904 20.8417 14.0944 20.9697 14.0944C21.0977 14.0944 21.2017 13.9904 21.2017 13.8624C21.2017 13.7344 21.0977 13.6304 20.9697 13.6304Z" fill="black"/>
</svg>
