<svg  viewBox="0 0 40 40" fill="none" xmlns="http://www.w3.org/2000/svg">
<path d="M19.607 20.5915C22.4746 20.5915 24.7992 18.2668 24.7992 15.3993C24.7992 12.5317 22.4746 10.207 19.607 10.207C16.7394 10.207 14.4148 12.5317 14.4148 15.3993C14.4148 18.2668 16.7394 20.5915 19.607 20.5915Z" stroke="#191A28" stroke-width="0.925926" stroke-miterlimit="10"/>
<path d="M31.6367 20.4513C33.7051 20.4513 35.3818 18.7745 35.3818 16.7061C35.3818 14.6377 33.7051 12.9609 31.6367 12.9609C29.5683 12.9609 27.8915 14.6377 27.8915 16.7061C27.8915 18.7745 29.5683 20.4513 31.6367 20.4513Z" stroke="#191A28" stroke-width="0.925926" stroke-miterlimit="10"/>
<path d="M8.36335 20.4513C10.4318 20.4513 12.1085 18.7745 12.1085 16.7061C12.1085 14.6377 10.4318 12.9609 8.36335 12.9609C6.29494 12.9609 4.61816 14.6377 4.61816 16.7061C4.61816 18.7745 6.29494 20.4513 8.36335 20.4513Z" stroke="#191A28" stroke-width="0.925926" stroke-miterlimit="10"/>
<path d="M11.6848 29.157V28.8029C11.6848 24.3037 15.3322 20.6562 19.8315 20.6562C24.3307 20.6562 27.9781 24.3037 27.9781 28.8029V29.5114" stroke="#191A28" stroke-width="0.925926" stroke-miterlimit="10"/>
<path d="M24.8849 22.7408C26.6741 20.6864 29.7627 20.5067 31.5893 20.7538C33.5149 21.0501 35.1934 22.0375 36.4767 23.5186C37.0197 24.1604 37.4149 24.9008 37.7604 25.6415C37.8593 25.8882 37.9579 26.1845 38.0567 26.4315C38.353 27.4682 38.4023 28.4556 38.3867 29.5119" stroke="#191A28" stroke-width="0.925926" stroke-miterlimit="10"/>
<path d="M15.1152 22.7408C13.326 20.6864 10.2375 20.5067 8.41079 20.7538C6.48524 21.0501 4.80672 22.0375 3.52339 23.5186C2.98042 24.1604 2.58524 24.9008 2.23968 25.6415C2.14079 25.8882 2.04227 26.1845 1.94339 26.4315C1.64709 27.4682 1.59783 28.4556 1.61339 29.5119" stroke="#191A28" stroke-width="0.925926" stroke-miterlimit="10"/>
</svg>
