<svg  viewBox="0 0 24 24" fill="none" xmlns="http://www.w3.org/2000/svg">
<path d="M18.522 15.6753H17.644V15.3997H18.522C18.9969 15.3997 19.3833 15.0133 19.3833 14.5382V5.40153C19.3833 4.92665 18.9969 4.5402 18.522 4.5402H8.54492V4.26465H18.522C19.1489 4.26465 19.6589 4.77465 19.6589 5.40153V14.5384C19.6589 15.1653 19.1489 15.6753 18.522 15.6753Z" fill="black"/>
<path d="M12.2777 15.6753H5.47771C4.85082 15.6753 4.34082 15.1653 4.34082 14.5384V5.40153C4.34082 4.77465 4.85082 4.26465 5.47771 4.26465H6.33126V4.5402H5.47771C5.00282 4.5402 4.61638 4.92665 4.61638 5.40153V14.5384C4.61638 15.0135 5.00282 15.4 5.47771 15.4H12.2775V15.6755L12.2777 15.6753Z" fill="black"/>
<path d="M14.9783 14.7336C13.3206 14.7336 11.9717 13.3849 11.9717 11.7271C11.9717 10.0694 13.3206 8.7207 14.9783 8.7207C16.6361 8.7207 17.9848 10.0694 17.9848 11.7271C17.9848 13.3849 16.6361 14.7336 14.9783 14.7336ZM14.9783 8.99604C13.4723 8.99604 12.2472 10.2211 12.2472 11.7271C12.2472 13.2331 13.4723 14.458 14.9783 14.458C16.4843 14.458 17.7092 13.2329 17.7092 11.7271C17.7092 10.2214 16.4841 8.99604 14.9783 8.99604Z" fill="black"/>
<path d="M19.6132 19.7351H19.3376V19.2122C19.3376 16.8083 17.3821 14.8527 14.9781 14.8527C12.5741 14.8527 10.6183 16.8083 10.6183 19.2122V19.7351H10.3428V19.2122C10.3428 16.6565 12.4221 14.5771 14.9781 14.5771C17.5341 14.5771 19.6132 16.6565 19.6132 19.2122V19.7351Z" fill="black"/>
</svg>
