<svg width="27" height="31" viewBox="0 0 27 31" fill="none" xmlns="http://www.w3.org/2000/svg">
<path d="M14.2912 29.5635L13.9937 29.7096C10.3805 29.3718 6.19326 30.1398 2.65017 29.7042C1.67104 29.5836 1.04318 28.813 1 27.6792V3.03039C1.04435 1.89391 1.66637 1.13268 2.65017 1.00536L24.232 1C25.2414 1.03216 25.9708 1.87112 26 3.03039L25.9953 27.8145C26.0455 28.5463 25.1842 29.7042 24.5926 29.7042H18.3758C18.363 29.7042 18.1926 29.5085 18.1926 29.4938V18.645H21.4836C21.57 17.3423 21.9282 15.7274 21.9212 14.4502C21.9212 14.3336 21.8781 14.1647 21.7894 14.1647H18.3151V10.455C18.3151 10.4148 18.6162 9.82784 18.6851 9.75949C19.4448 8.9929 21.3249 9.69784 22.094 9.40568C22.2352 8.14322 22.2398 6.75612 22.094 5.48562C22.0146 5.45613 20.8032 5.35294 20.5757 5.33954C18.6116 5.22294 15.9858 5.07284 14.9238 7.39941C14.6939 7.90332 14.2924 9.50887 14.2924 10.0342V14.3041H11.1228C11.3037 15.3441 10.88 17.7899 11.1228 18.6436C12.1486 18.7133 13.1849 18.7388 14.2317 18.7187L14.2924 29.5635H14.2912Z" stroke="#1B1B27" stroke-width="0.5" stroke-miterlimit="10"/>
</svg>
