<svg width="32" height="32" viewBox="0 0 32 32" fill="none" xmlns="http://www.w3.org/2000/svg">
<g clip-path="url(#clip0_1882_367)">
<path d="M26.6177 31.0032H5.3836C2.96545 31.0032 0.998047 29.0358 0.998047 26.6177V5.3836C0.998047 2.96545 2.96545 0.998047 5.3836 0.998047H26.6177C29.0358 0.998047 31.0032 2.96545 31.0032 5.3836V26.6177C31.0032 29.0358 29.0358 31.0032 26.6177 31.0032ZM5.3836 2.10916C3.57805 2.10916 2.10916 3.57805 2.10916 5.3836V26.6177C2.10916 28.4232 3.57805 29.8921 5.3836 29.8921H26.6177C28.4232 29.8921 29.8921 28.4232 29.8921 26.6177V5.3836C29.8921 3.57805 28.4232 2.10916 26.6177 2.10916H5.3836Z" fill="#020202"/>
<path d="M21.8708 6.03125V9.56162H19.5493C18.9952 9.56162 18.2256 10.1898 18.2256 10.7705V12.2861H21.4489V15.9698H18.2256V25.6779H13.3137V15.9698H10.1289V12.2861H13.3137C13.3171 11.0805 13.3911 9.80569 13.8826 8.69162C14.4234 7.46606 15.4559 6.61792 16.7378 6.25162L17.7648 6.03162H21.8708V6.03125ZM21.0648 6.83718C19.5171 6.92569 17.7671 6.56977 16.3311 7.26458C14.5204 8.14088 14.1915 10.0101 14.1178 11.8431C14.1011 12.2575 14.1334 12.6772 14.1193 13.0916H10.9345V15.1638H14.1193V24.872H17.3811V15.1638H20.643V13.1494C20.643 13.1453 20.5896 13.092 20.5856 13.092H17.3815C17.4485 11.835 17.08 10.2101 18.1693 9.29421C18.9678 8.6231 20.0871 8.72606 21.0652 8.71755V6.83718H21.0648Z" fill="#020202"/>
</g>
<defs>
<clipPath id="clip0_1882_367">
<rect width="32" height="32" fill="white"/>
</clipPath>
</defs>
</svg>
