<svg width="14" height="14" viewBox="0 0 14 14" fill="none" xmlns="http://www.w3.org/2000/svg">
<path d="M5.45 4.5C5.25 3.65 4.45 3 3.5 3C2.55 3 1.8 3.65 1.55 4.5H0V5.5H1.55C1.75 6.35 2.55 7 3.5 7C4.45 7 5.2 6.35 5.45 5.5H14V4.5H5.45ZM3.5 6C2.95 6 2.5 5.55 2.5 5C2.5 4.45 2.95 4 3.5 4C4.05 4 4.5 4.45 4.5 5C4.5 5.55 4.05 6 3.5 6ZM10.5 7C9.55 7 8.8 7.65 8.55 8.5H0V9.5H8.55C8.75 10.35 9.55 11 10.5 11C11.45 11 12.2 10.35 12.45 9.5H14V8.5H12.45C12.25 7.65 11.45 7 10.5 7ZM10.5 10C9.95 10 9.5 9.55 9.5 9C9.5 8.45 9.95 8 10.5 8C11.05 8 11.5 8.45 11.5 9C11.5 9.55 11.05 10 10.5 10Z" fill="black"/>
</svg>
