<svg width="32" height="32" viewBox="0 0 32 32" fill="none" xmlns="http://www.w3.org/2000/svg">
<g clip-path="url(#clip0_1882_361)">
<path d="M26.6177 31.0032H5.3836C2.96545 31.0032 0.998047 29.0358 0.998047 26.6177V5.3836C0.998047 2.96545 2.96545 0.998047 5.3836 0.998047H26.6177C29.0358 0.998047 31.0032 2.96545 31.0032 5.3836V26.6177C31.0032 29.0358 29.0358 31.0032 26.6177 31.0032ZM5.3836 2.10916C3.57805 2.10916 2.10916 3.57805 2.10916 5.3836V26.6177C2.10916 28.4232 3.57805 29.8921 5.3836 29.8921H26.6177C28.4232 29.8921 29.8921 28.4232 29.8921 26.6177V5.3836C29.8921 3.57805 28.4232 2.10916 26.6177 2.10916H5.3836Z" fill="#020202"/>
<path d="M20.1457 26.1876H11.8546C8.69089 26.1876 6.11719 23.6139 6.11719 20.4502V11.548C6.11719 8.38425 8.69089 5.81055 11.8546 5.81055H20.1457C23.3094 5.81055 25.8831 8.38425 25.8831 11.548V20.4502C25.8831 23.6139 23.3094 26.1876 20.1457 26.1876ZM11.8546 7.2587C9.48941 7.2587 7.56534 9.18277 7.56534 11.548V20.4502C7.56534 22.8154 9.48941 24.7394 11.8546 24.7394H20.1457C22.5109 24.7394 24.435 22.8154 24.435 20.4502V11.548C24.435 9.18277 22.5109 7.2587 20.1457 7.2587H11.8546Z" fill="black"/>
<path d="M16.0008 21.4156C13.0148 21.4156 10.5859 18.9863 10.5859 16.0008C10.5859 13.0152 13.0152 10.5859 16.0008 10.5859C18.9863 10.5859 21.4156 13.0152 21.4156 16.0008C21.4156 18.9863 18.9863 21.4156 16.0008 21.4156ZM16.0008 12.0341C13.8133 12.0341 12.0341 13.8137 12.0341 16.0008C12.0341 18.1878 13.8137 19.9674 16.0008 19.9674C18.1878 19.9674 19.9674 18.1878 19.9674 16.0008C19.9674 13.8137 18.1878 12.0341 16.0008 12.0341Z" fill="black"/>
<path d="M21.5475 11.8899C20.6004 11.8899 19.8301 11.1195 19.8301 10.1725C19.8301 9.22545 20.6004 8.45508 21.5475 8.45508C22.4945 8.45508 23.2649 9.22545 23.2649 10.1725C23.2649 11.1195 22.4945 11.8899 21.5475 11.8899ZM21.5475 9.85508C21.3723 9.85508 21.2301 9.99767 21.2301 10.1725C21.2301 10.3473 21.3727 10.4899 21.5475 10.4899C21.7223 10.4899 21.8649 10.3473 21.8649 10.1725C21.8649 9.99767 21.7223 9.85508 21.5475 9.85508Z" fill="black"/>
</g>
<defs>
<clipPath id="clip0_1882_361">
<rect width="32" height="32" fill="white"/>
</clipPath>
</defs>
</svg>
