<svg  viewBox="0 0 28 31" fill="none" xmlns="http://www.w3.org/2000/svg">
<path d="M27.4445 11.472C27.3718 8.17101 27.2622 5.46889 24.9308 3.13384C23.019 1.22078 20.6818 1.13638 18.2527 1.06672C15.7199 0.993037 13.1383 0.975621 10.6008 1.03859C7.67232 1.11227 5.12526 1.26499 3.05972 3.87334C1.32076 6.0704 1.26474 8.68143 1.20395 11.472C1.13959 14.3777 1.13721 17.3237 1.20395 20.2294C1.26593 22.9436 1.33864 25.5734 3.02754 27.7169C5.08593 30.3279 7.47327 30.4766 10.3958 30.561C13.4422 30.6494 16.7676 30.7298 19.801 30.5275C24.5399 30.21 27.1215 27.3391 27.4123 22.0058C27.5971 18.6098 27.5196 14.8841 27.4445 11.4733V11.472ZM25.0774 19.7123C25.0286 22.184 25.1621 24.7267 23.3528 26.4978C21.8593 27.9607 19.7223 27.8508 17.8582 27.9004C15.509 27.962 13.1395 27.9607 10.7903 27.9004C8.92738 27.8522 6.79152 27.9607 5.2957 26.4978C3.49715 24.7374 3.6211 22.2108 3.57104 19.7498C3.5186 17.1334 3.5186 14.497 3.57104 11.8792C3.62349 9.30706 3.50072 6.65316 5.51263 4.93168C6.96673 3.68712 9.1729 3.74339 10.9297 3.70052C13.7354 3.63354 16.8177 3.57191 19.6019 3.76348C23.2932 4.01802 24.8343 5.82524 25.0464 9.95278C25.2097 13.1265 25.1394 16.5266 25.0762 19.711L25.0774 19.7123Z" stroke="#1B1B27" stroke-width="0.5" stroke-miterlimit="10"/>
<path d="M22.4695 9.18444C20.9856 10.8523 18.7353 8.26677 20.2478 6.63236C21.7341 5.02743 23.9355 7.53664 22.4695 9.18444Z" stroke="#1B1B27" stroke-width="0.5" stroke-miterlimit="10"/>
<path d="M14.286 8.20845C9.12636 8.23525 5.888 14.5706 8.46486 19.6091C11.0012 24.5672 17.3611 24.6851 20.0595 19.8395C22.8819 14.7715 19.5816 8.18032 14.2848 8.20711L14.286 8.20845ZM18.4445 17.5071C17.1859 21.4511 12.3206 21.8772 10.4935 18.2185C8.96903 15.1654 10.7771 11.1959 13.8915 10.9106C17.1168 10.6145 19.5494 14.0481 18.4457 17.5071H18.4445Z" stroke="#1B1B27" stroke-width="0.5" stroke-miterlimit="10"/>
</svg>
