<svg  viewBox="0 0 52 52" fill="none" xmlns="http://www.w3.org/2000/svg">
<path d="M48 31.9224L47.3632 30.5392C44.1357 31.555 40.8421 32.9552 37.055 34.9301L35.7154 32.0118C36.3184 31.711 36.9215 31.4088 37.5358 31.0854C40.5848 29.4836 43.2866 28.2678 45.8886 27.33L45.2518 25.9468C42.6217 26.9002 39.8974 28.1345 36.8315 29.7404C36.2453 30.0469 35.6592 30.3434 35.0842 30.6328L33.6602 27.5358C34.9282 26.9498 36.2172 26.3199 37.5358 25.6276C39.7695 24.4557 41.8078 23.4967 43.7561 22.698L43.125 21.3204C41.1485 22.1347 39.0821 23.1065 36.8315 24.2883C35.5355 24.9693 34.2689 25.5879 33.0291 26.1624L21.0354 0.04398L21.0129 0L16.7522 9.49685L25.7249 29.0141C18.8566 31.179 12.8879 31.4244 7.65013 29.739L7.01896 31.1506C9.49303 31.9706 12.1175 32.3892 14.9093 32.3892C18.4489 32.3892 22.257 31.7252 26.3617 30.4086L27.8911 33.7398C19.1475 36.9149 11.8097 37.1433 5.56263 34.4094L4.93709 35.8097C8.00859 37.166 11.3191 37.8455 14.9093 37.8455C19.0632 37.8455 23.5868 36.9361 28.5279 35.123L29.9632 38.2413C19.3542 42.5429 10.7554 42.716 3.62555 38.7492L3 40.1552C6.60709 42.1527 10.5544 43.1515 14.9093 43.1515C19.6325 43.1515 24.8365 41.9683 30.6 39.6246L31.8173 42.1967L36.296 52H44.8948L37.6862 36.2991C41.5505 34.2846 44.7725 32.9127 47.9986 31.9196V31.9224H48Z" fill="black"/>
</svg>
