<svg width="110" height="127" viewBox="0 0 110 127" fill="none" xmlns="http://www.w3.org/2000/svg">
<g clip-path="url(#clip0_436_10)">
<path d="M85.0501 37.6058L84.2974 35.9763C80.4825 37.1729 76.5894 38.8225 72.1132 41.1489L70.5297 37.7111C71.2426 37.3568 71.9554 37.0008 72.6815 36.6197C76.2854 34.7328 79.4789 33.3005 82.5544 32.1958L81.8017 30.5663C78.693 31.6894 75.4729 33.1434 71.849 35.0353C71.1562 35.3963 70.4633 35.7456 69.7837 36.0866L68.1005 32.4382C69.5993 31.7479 71.1229 31.0059 72.6815 30.1903C75.3217 28.8098 77.7309 27.68 80.0338 26.739L79.2878 25.1162C76.9517 26.0755 74.5092 27.2204 71.849 28.6126C70.3171 29.4148 68.82 30.1435 67.3545 30.8203L53.1781 0.0518101L53.1515 0L48.1154 11.1876L58.7211 34.1796C50.6027 36.73 43.5477 37.0192 37.3568 35.0337L36.6107 36.6966C39.5351 37.6626 42.6372 38.1557 45.9371 38.1557C50.1209 38.1557 54.622 37.3735 59.4738 35.8225L61.2815 39.7467C50.9466 43.4871 42.2733 43.7562 34.8894 40.5356L34.15 42.1851C37.7805 43.7829 41.6934 44.5835 45.9371 44.5835C50.847 44.5835 56.1938 43.5122 62.0342 41.3762L63.7307 45.0497C51.1909 50.1171 41.0272 50.321 32.5997 45.6481L31.8604 47.3043C36.1239 49.6575 40.7896 50.8341 45.9371 50.8341C51.5199 50.8341 57.671 49.4402 64.4833 46.6793L65.9223 49.7093L71.216 61.258H81.3797L72.8592 42.7617C77.4269 40.3885 81.2351 38.7724 85.0484 37.6025V37.6058H85.0501Z" fill="black"/>
<path d="M38.8887 87.3931C38.8887 92.5807 33.5784 92.3484 33.4587 92.3484H30.3284V82.4377H33.4587C33.5784 82.451 38.8887 82.1318 38.8887 87.3931ZM37.2521 87.3931C37.2388 82.9223 34.1084 82.9223 33.4604 82.9223H31.8088V91.8287H33.4604C33.9688 91.8354 37.2654 91.822 37.2521 87.3914V87.3931Z" fill="black"/>
<path d="M50.6925 89.1561C50.6925 89.7678 50.5862 92.5555 46.861 92.5555C46.861 92.5555 43.0161 92.741 43.0161 89.1561V82.4375H44.4949V89.1561C44.4949 92.136 46.9989 91.9572 46.9989 91.9572C47.7781 91.9572 50.0894 91.6447 50.0894 89.1561V82.4375H50.6975V89.1561H50.6908H50.6925Z" fill="black"/>
<path d="M62.094 89.7823C62.094 90.3338 61.6903 92.3561 58.2758 92.3561H54.6885V82.4453H58.2758C61.3015 82.4453 61.6637 84.6013 61.6637 85.0325C61.6637 86.4029 60.7648 87.0213 59.9523 87.3071C60.9226 87.5327 62.0924 88.1377 62.0924 89.7823H62.094ZM58.0581 82.9183H56.1623V87.0096H58.3422C59.1481 87.0096 60.1982 86.3979 60.1982 85.101C60.1982 83.7038 59.2993 82.92 58.0581 82.92V82.9183ZM60.469 89.7088C60.469 87.6664 58.3289 87.4742 57.9136 87.4742H56.1639V91.8179H58.2774C58.2774 91.8179 60.4707 91.7711 60.4707 89.7088H60.469Z" fill="black"/>
<path d="M65.4089 92.3483L69.8203 82.4375L74.3381 92.3483H72.7131L71.8674 90.4798H66.9076L66.0752 92.3483H65.4072H65.4089ZM67.1319 89.9667H71.6231L69.3518 84.9846L67.1319 89.9667Z" fill="black"/>
<path d="M79.6766 92.3483H78.3357V82.4375H79.6766V92.3483Z" fill="black"/>
<path d="M2.58206 105.108C2.17996 105.121 1.80279 105.121 1.47878 105.121V109.579H0V99.668H1.47878C3.02403 99.668 6.1544 99.6279 6.1544 102.442C6.1544 104.025 5.19735 104.704 4.10072 104.989L7.38395 109.579H5.73237L2.58206 105.108ZM3.06391 104.55C3.32145 104.51 3.57235 104.43 3.79001 104.291C3.89635 104.211 3.99438 104.13 4.08743 104.018C4.18047 103.911 4.27186 103.773 4.33168 103.639C4.41143 103.479 4.4646 103.3 4.50282 103.126C4.54269 102.907 4.55599 102.666 4.55599 102.434C4.48952 100.278 2.83129 100.133 2.54218 100.133H1.47878V104.59H2.54218C2.71332 104.597 2.89277 104.583 3.06391 104.55Z" fill="black"/>
<path d="M17.5692 109.06V109.571H11.3733V99.6602H17.5692V100.172H12.8537V104.096H16.79V104.707H12.8537V109.051H17.5692V109.058V109.06Z" fill="black"/>
<path d="M21.2929 109.579L25.7044 99.668L30.2221 109.579H28.5971L27.7514 107.71H22.7916L21.9592 109.579H21.2913H21.2929ZM23.011 107.19H27.5022L25.2308 102.208L23.011 107.19Z" fill="black"/>
<path d="M40.2629 109.579H33.9424V99.668H35.2899V108.967H40.2629V109.579Z" fill="black"/>
<path d="M56.7289 109.06V109.571H50.533V99.6602H56.7289V100.172H52.0134V104.096H55.9496V104.707H52.0134V109.051H56.7289V109.058V109.06Z" fill="black"/>
<path d="M67.2116 107.017C67.2116 108.048 66.4589 109.751 64.1327 109.751C62.29 109.751 61.107 108.952 60.8229 106.925H61.2649C61.5623 108.78 63.0942 109.186 63.9798 109.186C65.5517 109.186 65.9289 108.075 65.9289 107.59C65.9289 106.546 65.0831 105.981 63.4714 105.135C62.4479 104.61 60.7166 103.738 60.7166 102.048C60.7166 99.8921 62.8301 99.4609 63.5827 99.4609C65.4653 99.4609 66.2445 100.465 66.5154 101.883H66.0335C65.8292 101.137 65.2941 100.014 63.6027 100.014C62.7702 100.014 61.878 100.693 61.878 101.543C61.878 102.548 63.0743 103.18 64.3088 103.818C66.6466 105.003 67.2082 105.84 67.2082 107.017H67.2116Z" fill="black"/>
<path d="M78.2627 100.272H75.0061V109.571H73.5273V100.272H70.2573V99.6602H78.2561V100.272H78.2627Z" fill="black"/>
<path d="M80.3762 109.579L84.7876 99.668L89.3054 109.579H87.6804L86.8346 107.71H81.8749L81.0425 109.579H80.3745H80.3762ZM82.0926 107.19H86.5837L84.3124 102.208L82.0926 107.19Z" fill="black"/>
<path d="M99.8147 100.272H96.5581V109.571H95.0793V100.272H91.8093V99.6602H99.8081V100.272H99.8147Z" fill="black"/>
<path d="M110 109.06V109.571H103.804V99.6602H110V100.172H105.284V104.096H109.221V104.707H105.284V109.051H110V109.058V109.06Z" fill="black"/>
<path d="M31.5513 124.944C31.4316 125.189 30.3417 126.999 27.5419 126.999C24.5428 126.999 22.7932 124.698 22.7932 121.843C22.7932 118.989 24.5428 116.688 27.5419 116.688C30.3749 116.688 31.4516 118.569 31.5646 118.757L31.2406 119.096C28.1634 115.371 24.4897 117.839 24.4897 121.843C24.4897 125.529 28.1484 128.33 31.214 124.618L31.5513 124.944Z" fill="black"/>
<path d="M41.7565 126.24V126.752H35.5605V116.848H41.7565V117.359H37.041V121.283H40.9772V121.895H37.041V126.239H41.7565V126.24Z" fill="black"/>
<path d="M53.6516 126.757L46.4853 119.672V126.757H45.8772V116.859L53.0435 123.924V116.859H53.6516V126.757Z" fill="black"/>
<path d="M65.6397 117.453H62.383V126.752H60.9042V117.453H57.6343V116.848H65.633V117.453H65.6397Z" fill="black"/>
<path d="M72.2129 122.288C71.8108 122.301 71.4336 122.301 71.1096 122.301V126.758H69.6309V116.848H71.1096C72.6549 116.848 75.7869 116.808 75.7869 119.622C75.7869 121.205 74.8299 121.883 73.7332 122.169L77.0165 126.758H75.3649L72.2146 122.288H72.2129ZM72.6948 121.728C72.9523 121.688 73.2032 121.608 73.4209 121.469C73.5272 121.389 73.6252 121.308 73.7183 121.196C73.8113 121.089 73.9027 120.951 73.9625 120.817C74.0423 120.657 74.0955 120.478 74.1337 120.306C74.1736 120.087 74.1868 119.846 74.1868 119.614C74.1204 117.458 72.4621 117.312 72.173 117.312H71.1096V121.77H72.173C72.3508 121.776 72.5236 121.756 72.6948 121.73V121.728Z" fill="black"/>
<path d="M87.1984 126.24V126.752H81.0024V116.848H87.1984V117.359H82.4829V121.283H86.4191V121.895H82.4829V126.239H87.1984V126.24Z" fill="black"/>
</g>
<defs>
<clipPath id="clip0_436_10">
<rect width="110" height="127" fill="white"/>
</clipPath>
</defs>
</svg>
