<svg  viewBox="0 0 24 24" fill="none" xmlns="http://www.w3.org/2000/svg">
<path d="M17.5473 20.0404H6.45307C5.0784 20.0404 3.95996 18.9219 3.95996 17.5473V6.45307C3.95996 5.0784 5.0784 3.95996 6.45307 3.95996H17.5473C18.9219 3.95996 20.0401 5.0784 20.0401 6.45307V17.5473C20.0401 18.9219 18.9219 20.0404 17.5473 20.0404ZM6.45307 4.0984C5.15462 4.0984 4.0984 5.15462 4.0984 6.45307V17.5473C4.0984 18.8455 5.15462 19.9019 6.45307 19.9019H17.5473C18.8455 19.9019 19.9019 18.8457 19.9019 17.5473V6.45307C19.9019 5.15485 18.8457 4.0984 17.5473 4.0984H6.45307Z" fill="black"/>
<path d="M10.1132 16.0927H9.01855V7.90625H12.1425C13.8757 7.90625 14.9816 8.7158 14.9816 10.2778C14.9816 11.8398 13.8757 12.6607 12.1425 12.6607H10.113V16.0927H10.1132ZM12.0857 11.7145C13.2485 11.7145 13.8985 11.2014 13.8985 10.2778C13.8985 9.35425 13.2485 8.85269 12.0857 8.85269H10.1132V11.7145H12.0857Z" fill="black"/>
</svg>
