<svg  viewBox="0 0 24 24" fill="none" xmlns="http://www.w3.org/2000/svg">
<path d="M14.9008 11.1965C14.7846 11.8163 14.9208 12.3576 15.2843 12.7205C15.6461 13.0823 16.1908 13.2194 16.809 13.104C17.4083 12.992 18.0135 12.6549 18.5128 12.1549C19.0121 11.6556 19.3492 11.0503 19.4623 10.4505C19.5779 9.8307 19.4417 9.28937 19.0788 8.92648C18.8001 8.64782 18.4163 8.50293 17.9723 8.50293C17.8379 8.50293 17.6983 8.51626 17.5541 8.54315C16.9546 8.65515 16.3497 8.99226 15.8506 9.49226C15.3512 9.99159 15.0139 10.5969 14.901 11.1965H14.9008ZM17.9712 8.79782C18.3383 8.79782 18.649 8.91448 18.8697 9.13537C19.4888 9.75448 19.235 11.0158 18.3039 11.9469C17.8755 12.3754 17.3563 12.6769 16.8421 12.796C16.6877 12.8318 16.5377 12.8494 16.3952 12.8494C16.0301 12.8494 15.7135 12.7338 15.4923 12.5127C15.1997 12.2203 15.0926 11.7723 15.1906 11.2511C15.2919 10.7107 15.5999 10.1603 16.0579 9.70137C16.6237 9.13559 17.3388 8.79782 17.971 8.79782H17.9712Z" fill="black"/>
<path d="M10.894 7.19009C10.7777 7.80986 10.914 8.35119 11.2775 8.71408C11.6393 9.07586 12.1844 9.21275 12.8022 9.09764C13.4015 8.98564 14.0066 8.64853 14.5059 8.14853C15.0053 7.6492 15.3424 7.04387 15.4555 6.44409C15.5715 5.82476 15.4353 5.28342 15.0719 4.92009C14.7931 4.6412 14.4095 4.49609 13.9662 4.49609C13.8317 4.49609 13.6917 4.50943 13.5475 4.53654C12.948 4.64876 12.3428 4.98587 11.8437 5.48565C11.3444 5.98498 11.0073 6.59031 10.8942 7.18986L10.894 7.19009ZM13.6015 4.82654C14.1228 4.72965 14.5717 4.83854 14.8626 5.12809C15.1706 5.43609 15.2737 5.92787 15.1464 6.47831C15.0273 6.99253 14.7257 7.51164 14.2973 7.94008C13.8393 8.39808 13.2888 8.7063 12.7471 8.80764C12.6215 8.83119 12.5002 8.84297 12.3842 8.84297C12.0197 8.84297 11.7084 8.72786 11.486 8.50608C11.1937 8.21297 11.0866 7.7652 11.1837 7.24453C11.2851 6.70364 11.5931 6.1532 12.0511 5.69453C12.5093 5.23631 13.0597 4.92831 13.6015 4.82676V4.82654Z" fill="black"/>
<path d="M18.9342 16.8803C19.1459 16.4152 19.1457 15.949 18.9335 15.5679C18.7213 15.1865 18.3253 14.9403 17.8184 14.8743C17.7306 14.8632 17.6411 14.8574 17.5506 14.8574C17.1368 14.8574 16.7026 14.9743 16.3028 15.1965C15.8153 15.4676 15.4342 15.8643 15.23 16.3139C15.0182 16.779 15.0184 17.2452 15.2306 17.6263C15.4428 18.0076 15.8388 18.2539 16.3457 18.3199C16.8242 18.3819 17.3726 18.2687 17.8615 17.9976C18.3491 17.7267 18.7299 17.3299 18.9344 16.8803H18.9342ZM16.6106 18.041C16.5591 18.041 16.5082 18.039 16.4577 18.0347C16.016 17.9983 15.6624 17.7974 15.4882 17.4836C15.3224 17.1859 15.326 16.8139 15.498 16.4367C15.6768 16.0441 16.0135 15.6952 16.4464 15.4548C16.7955 15.2608 17.1891 15.1539 17.5544 15.1539C18.0699 15.1539 18.4784 15.357 18.6753 15.711C18.8408 16.009 18.8375 16.3805 18.6657 16.7579C18.4868 17.1507 18.1499 17.4994 17.7173 17.7401C17.3644 17.9363 16.9771 18.041 16.6108 18.041H16.6106Z" fill="black"/>
<path d="M12.2297 18.5074C13.0353 17.3779 13.4964 16.0779 13.5275 14.8474C13.5597 13.5872 13.1386 12.4545 12.3419 11.6579C11.5453 10.8608 10.4119 10.4374 9.15195 10.4717C7.92039 10.5037 6.6204 10.9648 5.49173 11.7696C4.84685 12.2296 4.48396 12.9268 4.4964 13.6823C4.5084 14.447 4.89907 15.0674 5.5684 15.385C6.22862 15.6983 6.82884 16.1227 7.3524 16.6465C7.87617 17.1701 8.30062 17.7705 8.61395 18.4305C8.93128 19.0994 9.55195 19.4901 10.3168 19.5025L10.3395 19.503H10.3402C11.0946 19.503 11.7782 19.1398 12.2295 18.5072L12.2297 18.5074ZM10.3528 19.2076C10.3422 19.2076 10.3315 19.2076 10.3208 19.2074C9.67239 19.197 9.14728 18.8679 8.87995 18.3041C8.55173 17.613 8.10795 16.985 7.56062 16.4374C7.01262 15.8894 6.38462 15.4456 5.69396 15.1181C5.1304 14.8507 4.80107 14.3256 4.79062 13.6774C4.77974 13.0108 5.08929 12.4183 5.6624 12.0099C6.78306 11.2103 8.06862 10.7701 9.28261 10.7701C10.4135 10.7701 11.4255 11.1592 12.1319 11.8659C13.6446 13.3779 13.5844 16.099 11.9886 18.3359C11.5873 18.899 11.0075 19.2079 10.3528 19.2079V19.2076Z" fill="black"/>
<path d="M6.0005 6.13775C5.72916 6.62597 5.61472 7.16419 5.67827 7.6533C5.74361 8.15974 5.98983 8.55552 6.37183 8.76774C6.75449 8.98063 7.22227 8.97974 7.68427 8.7693C8.13405 8.56463 8.53093 8.18352 8.80182 7.69641C9.07315 7.20819 9.1876 6.66997 9.12404 6.18086C9.05871 5.67397 8.81249 5.27797 8.43049 5.06575C8.04916 4.85331 7.58316 4.85308 7.11805 5.06508C6.66827 5.26975 6.27138 5.65086 6.0005 6.13797V6.13775ZM7.24094 5.33197C7.61982 5.16064 7.99516 5.15908 8.28805 5.32264C8.5856 5.48819 8.77893 5.80575 8.83182 6.21686C8.88715 6.64508 8.78493 7.11908 8.54382 7.55174C8.30338 7.98419 7.95471 8.32107 7.56183 8.49996C7.36916 8.58752 7.17827 8.6313 6.99783 8.6313C6.81738 8.6313 6.66049 8.59063 6.51449 8.5093C6.21694 8.34374 6.02383 8.02619 5.97072 7.61508C5.91538 7.18686 6.01738 6.71286 6.2585 6.28041C6.49894 5.84775 6.84783 5.51086 7.24049 5.33219L7.24094 5.33197Z" fill="black"/>
</svg>
