<svg viewBox="0 0 40 40" fill="none" xmlns="http://www.w3.org/2000/svg">
<path d="M5.58777 23.1626L10.3904 26.416C11.7052 27.3067 13.4244 27.3289 14.7618 26.4719L17.9248 24.4452C19.2307 23.6086 20.9041 23.6082 22.2104 24.4445L25.2385 26.383C26.5759 27.2393 28.2944 27.2167 29.6089 26.3263L34.4126 23.0723" stroke="#191A28" stroke-width="0.925926" stroke-miterlimit="10"/>
<path d="M5.58777 28.0591L10.3904 31.3125C11.7052 32.2032 13.4244 32.2254 14.7618 31.3684L17.9248 29.3417C19.2307 28.505 20.9041 28.5047 22.2104 29.341L25.2385 31.2795C26.5759 32.1358 28.2944 32.1132 29.6089 31.2228L34.4126 27.9688" stroke="#191A28" stroke-width="0.925926" stroke-miterlimit="10"/>
<path d="M26.2088 11.7363H13.7925" stroke="#191A28" stroke-width="0.925926" stroke-miterlimit="10"/>
<path d="M26.2088 16.1484H13.7925" stroke="#191A28" stroke-width="0.925926" stroke-miterlimit="10"/>
<path d="M26.2088 20.5605H13.7925" stroke="#191A28" stroke-width="0.925926" stroke-miterlimit="10"/>
<path d="M13.7616 8.14453V26.6745" stroke="#191A28" stroke-width="0.925926" stroke-miterlimit="10"/>
<path d="M26.2408 8.14453V26.6745" stroke="#191A28" stroke-width="0.925926" stroke-miterlimit="10"/>
</svg>
