<svg viewBox="0 0 40 40" fill="none" xmlns="http://www.w3.org/2000/svg">
    <path fill-rule="evenodd" clip-rule="evenodd"
        d="M27.2083 24.8299L36.1749 33.7966C36.4901 34.112 36.6671 34.5397 36.6669 34.9855C36.6668 35.4314 36.4895 35.8589 36.1741 36.1741C35.8587 36.4893 35.431 36.6662 34.9852 36.6661C34.5393 36.6659 34.1118 36.4887 33.7966 36.1733L24.8299 27.2066C22.1495 29.2827 18.7787 30.2597 15.4035 29.9389C12.0282 29.618 8.90199 28.0233 6.66074 25.4793C4.41949 22.9353 3.23159 19.633 3.33869 16.2442C3.44579 12.8554 4.83986 9.63471 7.23728 7.23728C9.6347 4.83986 12.8554 3.44579 16.2442 3.33869C19.633 3.23159 22.9353 4.41949 25.4793 6.66074C28.0233 8.90199 29.618 12.0282 29.9389 15.4035C30.2597 18.7787 29.2827 22.1495 27.2066 24.8299M16.6666 26.6649C19.3188 26.6649 21.8623 25.6114 23.7377 23.736C25.613 21.8606 26.6666 19.3171 26.6666 16.6649C26.6666 14.0128 25.613 11.4692 23.7377 9.59387C21.8623 7.71851 19.3188 6.66494 16.6666 6.66494C14.0144 6.66494 11.4709 7.71851 9.59554 9.59387C7.72017 11.4692 6.66661 14.0128 6.66661 16.6649C6.66661 19.3171 7.72017 21.8606 9.59554 23.736C11.4709 25.6114 14.0144 26.6649 16.6666 26.6649Z"
        fill="black" />
</svg>