<svg  viewBox="0 0 24 24" fill="none" xmlns="http://www.w3.org/2000/svg">
<path d="M9.91315 7.88303L9.7207 7.78303C9.73093 7.76325 9.97648 7.29392 10.3749 6.78437C10.9174 6.09059 11.4578 5.68059 11.9811 5.56548L12.0129 5.55859L12.0434 5.57037C12.1065 5.59482 13.598 6.1857 14.1851 7.79614L13.9814 7.87059C13.4729 6.47592 12.2049 5.87637 11.9947 5.78526C10.8718 6.06281 9.92248 7.86503 9.91292 7.88348L9.91315 7.88303Z" fill="black"/>
<path d="M11.9668 13.5775C11.8959 13.1933 11.7099 11.8181 12.2952 10.2553C12.6508 9.30637 13.2268 8.45349 14.0079 7.72038C14.9674 6.81994 16.2432 6.09572 17.8001 5.56838L17.8576 5.54883L17.9043 5.58772C17.9307 5.60972 18.5554 6.16549 19.0954 9.66237L18.881 9.69548C18.4365 6.81727 17.9387 5.98172 17.8007 5.79705C15.055 6.74238 13.2712 8.26749 12.4983 10.331C11.9325 11.8419 12.1116 13.1675 12.1801 13.5379L11.9668 13.5773V13.5775Z" fill="black"/>
<path d="M12.1424 13.8553L11.9257 13.8457C12.005 12.0537 11.593 7.69371 6.09815 5.79705C5.96237 5.97838 5.46349 6.81149 5.01816 9.69548L4.80371 9.66237C5.34371 6.16549 5.9686 5.60972 5.99482 5.58772L6.04149 5.54883L6.09904 5.56838C11.7988 7.49949 12.2241 12.007 12.1424 13.8555V13.8553Z" fill="black"/>
<path d="M12.0382 18.4505L12.018 18.4472C11.9951 18.4434 9.70736 18.0529 7.35937 16.8503C5.97693 16.1421 4.84293 15.295 3.98915 14.3318C2.91782 13.1239 2.28694 11.7305 2.11405 10.1905L2.10449 10.1054L2.18516 10.0763C2.20294 10.0699 3.98893 9.43719 6.09226 9.57942C7.33203 9.66319 8.43959 9.99519 9.38381 10.5661C10.5025 11.2425 11.3918 12.2563 12.0296 13.5819C12.2434 13.1132 12.8289 12.0214 13.9891 11.085C14.8662 10.3772 15.8898 9.90942 17.0311 9.69497C18.4529 9.42764 20.0613 9.55542 21.8118 10.0741L21.8818 10.095L21.8889 10.1679C21.8949 10.2301 22.0224 11.7152 20.8687 13.4914C20.1942 14.5294 19.2187 15.4498 17.9687 16.2267C16.4127 17.1938 14.4242 17.9407 12.0582 18.4463L12.038 18.4505H12.0382ZM2.3396 10.2532C2.52094 11.7125 3.12938 13.035 4.14915 14.1856C4.98449 15.1281 6.09604 15.9587 7.45315 16.6545C9.65558 17.7838 11.8045 18.1887 12.0336 18.2296C14.3658 17.7294 16.324 16.9936 17.8542 16.0425C19.0769 15.2825 20.0298 14.3845 20.6867 13.3734C21.6591 11.8763 21.6862 10.5752 21.6764 10.261C19.9904 9.77097 18.4438 9.65186 17.0778 9.90719C15.9727 10.1139 14.982 10.5647 14.1329 11.2476C12.6834 12.4136 12.1414 13.8725 12.136 13.8872L12.0447 14.1387L11.9351 13.8947C11.3105 12.5014 10.4151 11.4447 9.27447 10.7541C8.36114 10.201 7.28781 9.87897 6.08404 9.79653C4.27538 9.67297 2.7076 10.1345 2.3396 10.2536V10.2532Z" fill="black"/>
</svg>
