<svg  viewBox="0 0 24 24" fill="none" xmlns="http://www.w3.org/2000/svg">
<path d="M19.4485 17.5791H4.55252C4.07763 17.5791 3.69141 17.1929 3.69141 16.718V7.28201C3.69141 6.80712 4.07785 6.4209 4.55252 6.4209H19.4487C19.9236 6.4209 20.3098 6.80712 20.3098 7.28201V16.718C20.3098 17.1929 19.9236 17.5791 19.4487 17.5791H19.4485ZM4.55252 6.53201C4.13896 6.53201 3.80252 6.86845 3.80252 7.28201V16.718C3.80252 17.1315 4.13896 17.468 4.55252 17.468H19.4487C19.8623 17.468 20.1987 17.1315 20.1987 16.718V7.28201C20.1987 6.86845 19.8623 6.53201 19.4487 6.53201H4.55252Z" fill="black"/>
<path d="M20.3093 14.7784H17.578C17.27 14.7784 17.0195 14.528 17.0195 14.22V9.7811C17.0195 9.4731 17.27 9.22266 17.578 9.22266H20.3093V14.7784ZM17.5778 9.33354C17.3311 9.33354 17.1304 9.53421 17.1304 9.78088V14.2198C17.1304 14.4664 17.3311 14.6671 17.5778 14.6671H20.198V9.33354H17.5778Z" fill="black"/>
<path d="M6.43956 14.7784H3.70801V9.22266H6.43956C6.74756 9.22266 6.998 9.4731 6.998 9.7811V14.22C6.998 14.528 6.74756 14.7784 6.43956 14.7784ZM3.81912 14.6673H6.43956C6.68622 14.6673 6.88689 14.4666 6.88689 14.22V9.7811C6.88689 9.53443 6.68622 9.33377 6.43956 9.33377H3.81912V14.6673Z" fill="black"/>
<path d="M12.0564 6.47656H11.9453V17.5239H12.0564V6.47656Z" fill="black"/>
<path d="M12.0081 14.9146C10.4005 14.9146 9.09277 13.6069 9.09277 11.9993C9.09277 10.3918 10.4005 9.08398 12.0081 9.08398C13.6157 9.08398 14.9234 10.3918 14.9234 11.9993C14.9234 13.6069 13.6157 14.9146 12.0081 14.9146ZM12.0081 9.1951C10.4619 9.1951 9.20388 10.4531 9.20388 11.9993C9.20388 13.5455 10.4619 14.8035 12.0081 14.8035C13.5543 14.8035 14.8123 13.5455 14.8123 11.9993C14.8123 10.4531 13.5543 9.1951 12.0081 9.1951Z" fill="black"/>
</svg>
