<svg  viewBox="0 0 24 24" fill="none" xmlns="http://www.w3.org/2000/svg">
<path d="M19.8384 7.42829L12.0257 2.95297L11.9971 2.93652L4.16107 7.43585L4.10352 7.46873V7.50207V7.5354V16.6192L11.9446 21.0354L11.9931 21.0627L12.0546 21.028L19.8666 16.6283L19.8959 16.6118V13.2838H19.7808V16.5443L12.0599 20.8927V12.0145L15.8486 9.84517L15.8475 9.84339L15.8928 9.81739L15.8357 9.7174L11.9933 11.9154L4.42107 7.58451L4.27685 7.50207L11.9968 3.06919L19.7221 7.49451L16.7986 9.16651L16.7993 9.16784L16.7682 9.18562L16.8253 9.28562L19.7801 7.59384V12.0618H19.8953V7.46429L19.8377 7.42807L19.8384 7.42829ZM4.6444 7.84473L11.9395 12.0174V20.8998L4.21863 16.5516V7.6014L4.64418 7.84473H4.6444Z" fill="black"/>
<path d="M11.9934 21.1013L11.9285 21.0648L4.07031 16.6391V7.44998L4.14453 7.40731L11.9972 2.89844L12.0423 2.92444L19.8561 7.40065L19.9292 7.44665V12.096H19.7474V7.65198L16.8134 9.33175L16.7232 9.17398L16.7541 9.15642L16.7825 9.13842L19.6554 7.49531L11.9972 3.10821L4.34409 7.50265L11.9934 11.8777L15.8483 9.67264L15.9385 9.83042L15.8929 9.85642L15.8652 9.87464L12.0932 12.0344V20.8364L19.7474 16.5255V13.2513H19.9292V16.6322L19.8829 16.6582L11.9932 21.1017L11.9934 21.1013ZM4.13698 16.6002L11.9932 21.0248L19.8625 16.5928V13.3177H19.8141V16.5644L19.7972 16.574L12.0267 20.9504V11.9957L12.0434 11.9862L15.8032 9.83331L15.8312 9.81509L15.8476 9.80575L15.8236 9.76375L11.9936 11.9546L11.977 11.9451L4.21009 7.50287L4.26053 7.47398L11.9972 3.03155L12.0138 3.0411L19.7896 7.49554L16.8447 9.17975L16.8141 9.19909L16.8381 9.24109L19.8141 7.53731V12.0295H19.8625V7.48376L19.8212 7.45776L11.9972 2.97577L4.13698 7.48887V16.6004V16.6002ZM11.973 20.9575L4.18542 16.5717V7.54443L11.973 11.9986V20.9575ZM4.25231 16.5326L11.9065 20.8433V12.0371L4.25231 7.65909V16.5324V16.5326Z" fill="black"/>
</svg>
