<svg width="28" height="31" viewBox="0 0 28 31" fill="none" xmlns="http://www.w3.org/2000/svg">
<path d="M24.2825 1L3.10624 1.02277C1.76418 1.28803 0.749889 2.46025 0.577065 3.98078L0.573486 27.6475C0.726048 29.3087 1.87741 30.5706 3.36012 30.7019H24.2134C25.7282 30.5693 26.882 29.2698 27 27.5698V4.13216C26.8844 2.45891 25.7604 1.1755 24.2825 1ZM16.6425 24.1268L12.6521 17.7861L7.76652 24.1268H6.35652L11.9822 16.7425L6.35652 7.5778H11.0013L14.5793 13.3022C14.6461 13.3022 15.0466 12.7891 15.13 12.6833C16.4601 11.006 17.7092 9.24436 19.0513 7.5778H20.4613L15.31 14.4088L21.2861 24.1281H16.6413L16.6425 24.1268Z" stroke="#1B1B27" stroke-width="0.5" stroke-miterlimit="10"/>
<path d="M19.0166 22.7352H17.193L8.62695 8.96875H10.4505L19.0166 22.7352Z" stroke="#1B1B27" stroke-width="0.5" stroke-miterlimit="10"/>
</svg>
