<svg width="32" height="32" viewBox="0 0 32 32" fill="none" xmlns="http://www.w3.org/2000/svg">
<g clip-path="url(#clip0_1882_358)">
<path d="M6.42524 25.8833L13.8626 17.0807L6.38672 6.15625H12.1082L17.0797 13.3614C17.1401 13.3766 17.5115 12.9381 17.5797 12.8611C19.5041 10.6859 21.3282 8.41847 23.2634 6.25218L23.3004 6.15625H25.0341L17.8726 14.5292L25.6508 25.8833H19.9101L14.6889 18.254L8.08153 25.8833H6.42487H6.42524ZM11.3182 7.42736H8.6982L20.7386 24.65H23.3008L23.1397 24.3681C19.1993 18.7222 15.2204 13.0937 11.3182 7.42736Z" fill="#020202"/>
<path d="M26.6177 31.0032H5.3836C2.96545 31.0032 0.998047 29.0358 0.998047 26.6177V5.3836C0.998047 2.96545 2.96545 0.998047 5.3836 0.998047H26.6177C29.0358 0.998047 31.0032 2.96545 31.0032 5.3836V26.6177C31.0032 29.0358 29.0358 31.0032 26.6177 31.0032ZM5.3836 2.10916C3.57805 2.10916 2.10916 3.57805 2.10916 5.3836V26.6177C2.10916 28.4232 3.57805 29.8921 5.3836 29.8921H26.6177C28.4232 29.8921 29.8921 28.4232 29.8921 26.6177V5.3836C29.8921 3.57805 28.4232 2.10916 26.6177 2.10916H5.3836Z" fill="#020202"/>
</g>
<defs>
<clipPath id="clip0_1882_358">
<rect width="32" height="32" fill="white"/>
</clipPath>
</defs>
</svg>
