<?xml version="1.0" encoding="UTF-8"?>
<svg id="Layer_1" data-name="Layer 1" xmlns="http://www.w3.org/2000/svg" viewBox="0 0 1080 1080">
  <defs>
    <style>
      .cls-1, .cls-2 {
        fill: #010101;
      }

      .cls-2 {
        stroke: #191a28;
        stroke-miterlimit: 10;
        stroke-width: 15px;
      }
    </style>
  </defs>
  <path class="cls-2" d="M939.02,673.44H141c-30,0-54.41-24.41-54.41-54.41v-158.05c0-30,24.41-54.42,54.41-54.42h798.01c30,0,54.41,24.41,54.41,54.42v158.05c0,30-24.41,54.41-54.41,54.41h.01ZM141,412.64c-26.65,0-48.33,21.68-48.33,48.34v158.05c0,26.65,21.68,48.33,48.33,48.33h798.01c26.65,0,48.33-21.68,48.33-48.33v-158.05c0-26.66-21.68-48.34-48.33-48.34H141Z"/>
  <rect class="cls-2" x="165.7" y="592.71" width="748.62" height="6.08"/>
  <path class="cls-1" d="M943.65,640.3c-9.11,0-16.52-7.41-16.52-16.52s7.41-16.52,16.52-16.52,16.52,7.41,16.52,16.52-7.41,16.52-16.52,16.52Z"/>
</svg>