<?xml version="1.0" encoding="UTF-8"?>
<svg id="Layer_1" data-name="Layer 1" xmlns="http://www.w3.org/2000/svg" viewBox="0 0 1080 1080">
  <defs>
    <style>
      .cls-1 {
        fill: #191a28;
      }
    </style>
  </defs>
  <path class="cls-1" d="M868.41,654.23V243.07c0-31.52-25.64-57.16-57.16-57.16h-454.97v24.4h454.97c18.06,0,32.76,14.7,32.76,32.76v411.15c0,18.07-14.7,32.77-32.76,32.77h-39.16c-19.4-13.19-41.07-23.28-64.29-29.57,50.1-21.74,85.24-71.68,85.24-129.68,0-77.91-63.38-141.29-141.29-141.29s-141.3,63.38-141.3,141.29c0,58,35.14,107.94,85.24,129.68-23.22,6.29-44.9,16.38-64.3,29.58H224.17c-18.06,0-32.76-14.7-32.76-32.77V243.07c0-18.06,14.7-32.76,32.76-32.76h44.41v-24.4h-44.41c-31.52,0-57.16,25.64-57.16,57.16v411.16c0,31.52,25.64,57.16,57.16,57.16h277.46c-39.76,38.97-64.47,93.23-64.47,153.17v29.53h24.4v-29.53c0-104.87,85.32-190.18,190.19-190.18s190.18,85.31,190.18,190.18v29.53h24.4v-29.53c0-59.94-24.71-114.2-64.47-153.17h9.39c31.52,0,57.16-25.64,57.16-57.16ZM534.85,527.74c0-64.46,52.44-116.9,116.9-116.9s116.89,52.44,116.89,116.9-52.44,116.89-116.89,116.89-116.9-52.44-116.9-116.89Z"/>
</svg>