<svg  viewBox="0 0 40 40" fill="none" xmlns="http://www.w3.org/2000/svg">
<path d="M27.4641 21.8246C27.4089 21.8816 27.3459 21.9309 27.2759 21.9698C26.9882 22.1305 26.7093 22.252 26.4096 22.3357L30.5548 24.3879L19.9652 29.5294L9.42668 24.5061L13.4637 22.4676C13.1367 22.3061 12.8274 22.1113 12.5263 21.9035L7.32483 24.5298L19.9689 30.5568L32.6582 24.3957L27.4641 21.8242V21.8246Z" fill="#191A28"/>
<path d="M27.7385 17.6104C27.6952 17.65 27.6497 17.683 27.6019 17.7059C27.3241 17.8389 27.0671 18.0093 26.7882 18.1415C26.7771 18.1467 26.766 18.1515 26.7548 18.1567L26.7719 18.1652L30.5641 20.0426L19.9745 25.1841L9.43595 20.1608L13.1034 18.3089L13.5197 18.0985C13.2467 18.0896 13.006 17.967 12.8297 17.7793C12.6997 17.7367 12.5819 17.6708 12.4808 17.5859L12.1897 17.733L7.33447 20.1845L19.9785 26.2115L32.6678 20.0504L27.7393 17.6104H27.7385Z" fill="#191A28"/>
<path d="M19.986 22.0094L7.34192 15.9824L20.0178 9.58203L32.6756 15.8483L19.9864 22.0094H19.986ZM9.4434 15.9587L19.9819 20.982L30.5715 15.8406L20.0212 10.6176L9.44303 15.9587H9.4434Z" fill="#191A28"/>
</svg>
