<?xml version="1.0" encoding="UTF-8"?>
<svg id="Layer_1" data-name="Layer 1" xmlns="http://www.w3.org/2000/svg" viewBox="0 0 1080 1080">
  <defs>
    <style>
      .cls-1 {
        fill: #010101;
      }

      .cls-2 {
        fill: none;
        stroke: #191a28;
        stroke-miterlimit: 10;
        stroke-width: 25px;
      }
    </style>
  </defs>
  <path class="cls-2" d="M763.19,895.26h-499.24c-61.86,0-112.19-50.33-112.19-112.19v-499.24c0-61.86,50.33-112.19,112.19-112.19h499.24c61.86,0,112.18,50.33,112.18,112.19v499.24c0,61.86-50.32,112.19-112.18,112.19ZM263.95,177.87c-58.43,0-105.96,47.53-105.96,105.96v499.24c0,58.42,47.53,105.96,105.96,105.96h499.24c58.42,0,105.96-47.53,105.96-105.96v-499.24c0-58.42-47.53-105.96-105.96-105.96h-499.24Z"/>
  <path class="cls-1" d="M428.66,717.64h-49.26v-368.39h140.58c77.99,0,127.76,36.43,127.76,106.72s-49.77,107.23-127.76,107.23h-91.33v154.44h.01ZM517.42,520.62c52.33,0,81.58-23.09,81.58-64.65s-29.25-64.13-81.58-64.13h-88.76v128.78h88.76Z"/>
</svg>