<?xml version="1.0" encoding="UTF-8"?>
<svg id="Layer_1" data-name="Layer 1" xmlns="http://www.w3.org/2000/svg" viewBox="0 0 1080 1080">
  <defs>
    <style>
      .cls-1 {
        fill: #191a28;
      }
    </style>
  </defs>
  <path class="cls-1" d="M726.97,597.53c-21.56,0-40.29-7.13-53.99-20.83-17.8-17.77-24.52-44.03-18.91-73.93l.92-4.89h.12c6.13-26.53,21.39-52.96,43.36-74.93,23.31-23.35,51.65-39.11,79.8-44.37,6.81-1.27,13.51-1.91,19.92-1.91,21.73,0,40.41,7.2,54.03,20.82,17.77,17.77,24.49,44.02,18.92,73.92-5.31,28.18-21.08,56.54-44.39,79.84-23.32,23.35-51.66,39.11-79.81,44.37-6.86,1.28-13.54,1.91-19.96,1.91ZM798.13,401.94c-26.9,0-57.5,14.54-81.86,38.9-19.76,19.8-33.03,43.45-37.38,66.6-4.03,21.45.2,39.71,11.92,51.42,8.76,8.76,21.34,13.39,36.39,13.39,6.02,0,12.33-.75,18.76-2.24,22.06-5.11,44.4-18.11,62.89-36.61,19.44-19.44,32.67-42.69,37.25-65.47,4.4-21.89.22-40.56-11.79-52.57-8.78-8.79-21.29-13.43-36.19-13.43Z"/>
  <path class="cls-1" d="M546.67,417.24c-21.57,0-40.3-7.13-54-20.83-17.8-17.77-24.52-44.03-18.91-73.93l.36-1.78c5.63-27.58,21.22-55.24,44.04-78.06,23.31-23.34,51.65-39.09,79.81-44.36,6.79-1.28,13.5-1.92,19.94-1.92,21.7,0,40.37,7.21,54,20.84h0c17.79,17.79,24.51,44.05,18.91,73.93-5.31,28.18-21.08,56.53-44.38,79.84-23.32,23.35-51.66,39.11-79.81,44.37-6.86,1.28-13.54,1.91-19.96,1.91ZM603.63,222.95l-1.03.2c-23.2,4.35-46.87,17.63-66.63,37.4-19.76,19.79-33.04,43.45-37.38,66.61-4,21.42.25,39.69,11.95,51.43,8.79,8.76,21.3,13.4,36.17,13.4,4.84,0,9.96-.5,15.22-1.49,23.19-4.34,46.85-17.62,66.62-37.38,18.5-18.5,31.5-40.83,36.61-62.89h0c5.25-22.71,1.18-42.82-11.17-55.16-11.53-11.47-29.39-15.76-50.37-12.1Z"/>
  <path class="cls-1" d="M736.62,831.15c-4.23,0-8.39-.26-12.44-.79-24.75-3.22-44.16-15.38-54.65-34.24-10.5-18.86-10.59-41.75-.25-64.46,9.71-21.38,27.76-40.21,50.82-53.04,18.85-10.48,39.27-16.02,59.07-16.02,4.26,0,8.57.27,12.8.81,24.76,3.22,44.17,15.39,54.67,34.24h0c9.19,16.51,10.41,36.11,3.63,55.98h.48l-3.85,8.48c-9.73,21.4-27.78,40.24-50.83,53.04-18.75,10.4-39.81,15.99-59.45,15.99ZM779.34,687.94c-15.44,0-32.11,4.54-46.95,12.78-18.35,10.2-32.61,24.91-40.13,41.43-6.93,15.2-7.17,30.01-.66,41.71,6.85,12.34,21.03,20.26,38.88,21.74,2.06.17,4.21.26,6.39.26,15.41,0,32.06-4.54,46.88-12.78,18.36-10.21,32.62-24.93,40.14-41.44h0c6.92-15.2,7.15-30.01.65-41.71-7.77-13.97-24.24-21.98-45.2-21.98Z"/>
  <path class="cls-1" d="M454.74,883.64l-1.17-.02c-36.77-.6-66.64-19.43-81.93-51.67-13.81-29.1-32.52-55.55-55.59-78.61-23.08-23.08-49.52-41.79-78.61-55.59-32.26-15.3-51.09-45.17-51.67-81.95-.59-36,16.65-69.18,47.3-91.05,51.76-36.91,111.44-58.05,168.04-59.52,58.28-1.57,110.83,18,147.95,55.14,37.03,37.03,56.6,89.56,55.1,147.92-1.43,56.55-22.56,116.22-59.51,168.03l-4.12,5.77-.16-.16c-21.41,26.59-52.25,41.7-85.64,41.7ZM407.15,490.65c-53.39,0-110.01,19.42-159.42,54.67-24.13,17.2-37.17,42.08-36.72,70.06.43,26.8,14,48.49,37.22,59.51,31.71,15.04,60.53,35.41,85.67,60.55,25.11,25.12,45.48,53.94,60.55,85.67,11.01,23.23,32.71,36.79,59.52,37.22.47.01.91,0,1.34,0h1.3c26.91-.41,50.82-13.41,67.43-36.71h0c70.1-98.27,73.08-217.46,7.09-283.42-30.66-30.67-74.69-47.55-123.98-47.55Z"/>
  <path class="cls-1" d="M265.44,256.35c11.61-14.91,26.01-26.62,41.8-33.81,22.71-10.35,45.6-10.26,64.47.25,18.89,10.49,31.05,29.9,34.24,54.66,3.02,23.27-2.38,48.8-15.21,71.88-12.81,23.04-31.65,41.09-53.05,50.83-11.23,5.12-22.51,7.67-33.34,7.67s-21.59-2.65-31.12-7.96c-18.89-10.5-31.05-29.9-34.24-54.62-3.02-23.27,2.38-48.8,15.21-71.88M317.86,245.41l-.14.06c-16.51,7.51-31.23,21.76-41.43,40.12h0c-10.22,18.34-14.57,38.36-12.24,56.38,2.14,16.56,9.75,29.27,21.44,35.77,5.72,3.19,11.88,4.73,18.83,4.73,7.35,0,15.05-1.81,22.9-5.37,16.51-7.52,31.22-21.77,41.43-40.12,10.23-18.36,14.58-38.38,12.25-56.39-2.13-16.56-9.74-29.26-21.44-35.77-11.6-6.48-26.36-6.27-41.6.58Z"/>
</svg>