<svg  viewBox="0 0 40 40" fill="none" xmlns="http://www.w3.org/2000/svg">
<path d="M3.82959 34.1098L7.64181 10.3246C8.06552 7.68199 10.3455 5.73828 13.0218 5.73828H26.9703C29.65 5.73828 31.9318 7.6868 32.3518 10.3331L36.1703 34.4038" stroke="#191A28" stroke-width="0.925926" stroke-miterlimit="10"/>
<path d="M15.1848 5.73828V10.2898" stroke="#191A28" stroke-width="0.925926" stroke-miterlimit="10"/>
<path d="M15.1849 15.3676C16.4789 15.3676 17.5278 14.3186 17.5278 13.0246C17.5278 11.7306 16.4789 10.6816 15.1849 10.6816C13.8909 10.6816 12.8419 11.7306 12.8419 13.0246C12.8419 14.3186 13.8909 15.3676 15.1849 15.3676Z" stroke="#191A28" stroke-width="0.925926" stroke-miterlimit="10"/>
<path d="M23.573 5.81836V15.468" stroke="#191A28" stroke-width="0.925926" stroke-miterlimit="10"/>
<path d="M23.5729 20.5473C24.8669 20.5473 25.9159 19.4983 25.9159 18.2043C25.9159 16.9103 24.8669 15.8613 23.5729 15.8613C22.279 15.8613 21.23 16.9103 21.23 18.2043C21.23 19.4983 22.279 20.5473 23.5729 20.5473Z" stroke="#191A28" stroke-width="0.925926" stroke-miterlimit="10"/>
</svg>
