<?xml version="1.0" encoding="UTF-8"?>
<svg id="Layer_1" xmlns="http://www.w3.org/2000/svg" version="1.1" viewBox="0 0 1080 1080">
  <!-- Generator: Adobe Illustrator 29.5.1, SVG Export Plug-In . SVG Version: 2.1.0 Build 141)  -->
  <defs>
    <style>
      .st0 {
        fill: #191a28;
      }
    </style>
  </defs>
  <path class="st0" d="M1029.11,991.11l-118.86-749.26c-5.78-36.46-24.43-69.73-52.5-93.7s-63.86-37.17-100.77-37.17h-434.18c-36.87,0-72.62,13.17-100.68,37.09-28.06,23.92-46.72,57.14-52.56,93.54L50.89,981.98l-28.46-4.56L141.1,237.05c6.92-43.16,29.05-82.55,62.32-110.91,33.27-28.36,75.66-43.98,119.38-43.98h434.18c43.77,0,86.2,15.65,119.49,44.07,33.29,28.42,55.39,67.88,62.25,111.11l118.86,749.26-28.47,4.51Z"/>
  <rect class="st0" x="375.71" y="96.57" width="28.82" height="141.67"/>
  <path class="st0" d="M390.12,410.73c-48.16,0-87.34-39.18-87.34-87.34s39.18-87.34,87.34-87.34,87.34,39.18,87.34,87.34-39.18,87.34-87.34,87.34ZM390.12,264.87c-32.27,0-58.52,26.25-58.52,58.52s26.25,58.52,58.52,58.52,58.52-26.25,58.52-58.52-26.25-58.52-58.52-58.52Z"/>
  <rect class="st0" x="636.81" y="99.07" width="28.82" height="300.37"/>
  <path class="st0" d="M651.22,571.93c-48.16,0-87.34-39.18-87.34-87.34s39.18-87.34,87.34-87.34,87.34,39.18,87.34,87.34-39.18,87.34-87.34,87.34ZM651.22,426.07c-32.27,0-58.52,26.25-58.52,58.52s26.25,58.52,58.52,58.52,58.52-26.25,58.52-58.52-26.25-58.52-58.52-58.52Z"/>
</svg>