<?xml version="1.0" encoding="UTF-8"?>
<svg id="Layer_1" xmlns="http://www.w3.org/2000/svg" version="1.1" viewBox="0 0 1080 1080">
  <!-- Generator: Adobe Illustrator 29.5.1, SVG Export Plug-In . SVG Version: 2.1.0 Build 141)  -->
  <defs>
    <style>
      .st0 {
        fill: #191a28;
      }
    </style>
  </defs>
  <path class="st0" d="M280.65,803.3c-30.52,0-61.01-8.97-87.41-26.85l-168.75-114.31,18.25-26.93,168.75,114.31c40.87,27.68,94.13,28.37,135.69,1.74l111.13-71.21c51.06-32.71,117.05-32.72,168.12-.03l106.39,68.11c41.56,26.61,94.81,25.92,135.66-1.76l168.77-114.33,18.25,26.93-168.77,114.33c-51.63,34.98-118.93,35.85-171.45,2.22l-106.39-68.11c-40.41-25.87-92.63-25.86-133.03.02l-111.13,71.21c-25.68,16.45-54.89,24.66-84.08,24.66Z"/>
  <path class="st0" d="M280.65,975.33c-30.52,0-61.01-8.97-87.41-26.85l-168.75-114.31,18.25-26.93,168.75,114.31c40.87,27.69,94.14,28.37,135.69,1.74l111.13-71.21c51.05-32.71,117.05-32.72,168.12-.03l106.39,68.11c41.56,26.61,94.81,25.92,135.66-1.76l168.77-114.33,18.25,26.93-168.77,114.33c-51.63,34.98-118.93,35.85-171.45,2.22l-106.39-68.11c-40.41-25.87-92.63-25.86-133.03.02l-111.13,71.2c-25.68,16.45-54.9,24.66-84.08,24.66Z"/>
  <g>
    <rect class="st0" x="321.87" y="230.97" width="436.25" height="32.53"/>
    <rect class="st0" x="321.87" y="385.98" width="436.25" height="32.53"/>
    <rect class="st0" x="321.87" y="540.99" width="436.25" height="32.53"/>
    <g>
      <rect class="st0" x="304.5" y="121.01" width="32.53" height="651.06"/>
      <rect class="st0" x="742.97" y="121.01" width="32.53" height="651.06"/>
    </g>
  </g>
</svg>