<?xml version="1.0" encoding="UTF-8"?>
<svg id="Layer_1" data-name="Layer 1" xmlns="http://www.w3.org/2000/svg" viewBox="0 0 1080 1080">
  <defs>
    <style>
      .cls-1 {
        fill: #191a28;
      }
    </style>
  </defs>
  <polyline class="cls-1" points="541.46 824.18 542.69 824.38 542.08 831.8 543.16 836.12 542.08 831.81 541.71 836.3"/>
  <path class="cls-1" d="M541.84,836.4l-2.01-.33c-1.04-.17-104.44-17.66-211.4-72.44-62.9-32.22-114.52-70.81-153.42-114.69-49.05-55.3-77.93-119.12-85.85-189.67l-.96-8.54,8.08-2.92c.48-.17,48.51-17.41,115.29-22.36,23.9-149.27,51.27-176.03,54.34-178.61l4.7-3.92,5.78,1.96c64.6,21.89,118.96,52.79,161.69,91.91,5.26-8.87,13.45-21.68,24.03-35.22,25.29-32.34,50.76-51.53,75.72-57.01l3.21-.7,3.05,1.18c2.64,1.02,62.74,24.9,93.23,88.05,42.38-36.54,96.76-66.19,161.77-88.21l5.77-1.96,4.69,3.91c3.07,2.55,30.4,29.09,54.32,178.39,37.82,2.59,77.95,10.11,119.36,22.38l7.03,2.1.71,7.3c.28,2.89,6.2,71.72-46.85,153.4-30.85,47.47-75.38,89.5-132.36,124.92-70.63,43.9-160.75,77.76-267.88,100.65l-2.03.42ZM111.89,465.66c8.75,62.47,35.42,119.22,79.31,168.74,37.1,41.85,86.53,78.78,146.93,109.74,95.46,48.95,188.24,67.34,203.28,70.1,103.76-22.36,190.85-55.13,258.86-97.4,54.26-33.73,96.52-73.53,125.6-118.28h0c39.36-60.6,43.45-114.44,43.61-132.26-73.29-20.75-140.52-25.65-199.88-14.56-48.75,9.12-92.44,29-129.86,59.1-63.56,51.13-87.75,115.52-87.98,116.16l-9.16,25.22-10.99-24.48c-27.6-61.56-67.09-108.21-117.36-138.65-40.26-24.38-87.66-38.59-140.87-42.24-74.34-5.08-140.34,12.42-161.48,18.81ZM550.44,563.27c.56,5.15,1.02,10.33,1.38,15.51,15.36-25.35,39.02-56.43,73.92-84.6,40.26-32.49,87.21-53.94,139.55-63.78,24.18-4.55,49.84-6.6,76.38-6.15-17.08-104.63-35.12-143.42-43.01-156.2-119.31,42.03-196.89,108.95-230.6,198.95-11.46,30.62-17.39,63-17.61,96.26ZM245.95,424.17c9.69,0,19.26.32,28.6.95,56.76,3.83,107.5,19.06,150.82,45.25,41.57,25.13,76.29,60.48,103.51,105.29-.12-3.47-.19-7.13-.18-10.97-6.58-59.15-26.19-112.38-58.31-158.21-43.18-61.63-108.29-108.18-193.55-138.41-7.23,11.92-25.82,50.92-43.03,156.26,4.07-.11,8.12-.16,12.15-.16ZM454.16,352.48c38.87,40.34,66.61,88.18,82.69,142.54,2.87-12.15,6.49-24.06,10.82-35.63,15.43-41.19,39.91-78.43,72.8-110.78-22.25-51.77-68.06-75.9-81.24-81.95-17.74,5.1-37.35,20.43-56.85,44.47-13.53,16.68-23.52,33.13-28.21,41.35Z"/>
</svg>