<?xml version="1.0" encoding="UTF-8"?>
<svg id="Layer_1" xmlns="http://www.w3.org/2000/svg" version="1.1" viewBox="0 0 1080 1080">
  <!-- Generator: Adobe Illustrator 29.5.1, SVG Export Plug-In . SVG Version: 2.1.0 Build 141)  -->
  <defs>
    <style>
      .st0 {
        fill: #191a28;
      }
    </style>
  </defs>
  <polyline class="st0" points="542 872.4 543.44 872.63 542.73 881.3 543.99 886.35 542.73 881.32 542.3 886.56"/>
  <path class="st0" d="M542.44,886.68l-2.35-.39c-1.21-.2-122.02-20.63-246.99-84.64-73.49-37.65-133.79-82.73-179.24-133.99-57.3-64.61-91.05-139.17-100.3-221.6l-1.12-9.97,9.45-3.41c.56-.2,56.68-20.34,134.69-26.12,27.92-174.39,59.9-205.66,63.49-208.67l5.5-4.58,6.75,2.3c75.47,25.57,138.98,61.67,188.9,107.37,6.15-10.36,15.71-25.33,28.08-41.15,29.54-37.79,59.31-60.2,88.46-66.61l3.75-.81,3.56,1.38c3.08,1.19,73.3,29.09,108.92,102.87,49.52-42.68,113.04-77.33,188.99-103.05l6.74-2.29,5.48,4.56c3.58,2.98,35.51,33.99,63.46,208.41,44.19,3.02,91.07,11.81,139.45,26.15l8.21,2.45.83,8.53c.33,3.38,7.25,83.8-54.74,179.22-36.04,55.46-88.07,104.57-154.64,145.94-82.51,51.28-187.81,90.85-312.97,117.59l-2.37.5ZM40.12,453.54c10.22,72.98,41.38,139.28,92.66,197.14,43.34,48.9,101.1,92.04,171.66,128.21,111.52,57.18,219.92,78.67,237.5,81.9,121.22-26.12,222.97-64.41,302.43-113.79,63.39-39.4,112.76-85.9,146.74-138.19h0c45.99-70.8,50.76-133.7,50.96-154.52-85.63-24.25-164.17-29.97-233.52-17.01-56.95,10.65-108,33.88-151.72,69.05-74.26,59.74-102.52,134.96-102.79,135.71l-10.7,29.47-12.84-28.6c-32.25-71.93-78.38-126.43-137.12-161.99-47.04-28.49-102.41-45.09-164.58-49.35-86.86-5.93-163.97,14.51-188.66,21.97ZM552.49,567.57c.65,6.01,1.19,12.06,1.61,18.13,17.95-29.62,45.58-65.93,86.36-98.84,47.04-37.95,101.89-63.02,163.04-74.51,28.25-5.31,58.23-7.71,89.24-7.18-19.96-122.24-41.03-167.56-50.25-182.49-139.4,49.1-230.04,127.29-269.42,232.44-13.39,35.77-20.32,73.61-20.57,112.46ZM196.75,405.06c11.33,0,22.5.37,33.41,1.11,66.31,4.48,125.59,22.27,176.2,52.87,48.56,29.37,89.14,70.66,120.93,123.01-.14-4.05-.22-8.33-.21-12.81-7.68-69.1-30.6-131.29-68.12-184.84-50.45-72.01-126.51-126.39-226.13-161.7-8.44,13.93-30.16,59.49-50.28,182.56,4.75-.13,9.49-.19,14.19-.19ZM440.01,321.31c45.42,47.13,77.82,103.02,96.61,166.53,3.36-14.19,7.58-28.11,12.64-41.63,18.03-48.12,46.63-91.64,85.05-129.42-25.99-60.49-79.51-88.67-94.92-95.74-20.73,5.96-43.63,23.87-66.42,51.95-15.81,19.49-27.48,38.71-32.96,48.31Z"/>
</svg>