<?xml version="1.0" encoding="UTF-8"?>
<svg id="Layer_1" data-name="Layer 1" xmlns="http://www.w3.org/2000/svg" viewBox="0 0 1080 1080">
  <defs>
    <style>
      .cls-1 {
        fill: none;
        stroke: #191a28;
        stroke-miterlimit: 10;
        stroke-width: 17px;
      }
    </style>
  </defs>
  <path class="cls-1" d="M875.15,791.06H204.83c-21.37,0-38.75-17.38-38.75-38.75v-424.62c0-21.37,17.39-38.75,38.75-38.75h670.33c21.37,0,38.75,17.38,38.75,38.75v424.62c0,21.37-17.38,38.75-38.75,38.75h-.01ZM204.83,293.94c-18.61,0-33.75,15.14-33.75,33.75v424.62c0,18.61,15.14,33.75,33.75,33.75h670.33c18.61,0,33.75-15.14,33.75-33.75v-424.62c0-18.61-15.14-33.75-33.75-33.75H204.83Z"/>
  <path class="cls-1" d="M913.91,665.01h-122.91c-13.86,0-25.13-11.27-25.13-25.13v-199.75c0-13.86,11.27-25.13,25.13-25.13h122.91v250.01h0ZM790.99,419.99c-11.1,0-20.13,9.03-20.13,20.13v199.75c0,11.1,9.03,20.13,20.13,20.13h117.91v-240.01h-117.91Z"/>
  <path class="cls-1" d="M289.75,665.01h-122.92v-250.01h122.92c13.86,0,25.13,11.27,25.13,25.13v199.75c0,13.86-11.27,25.13-25.13,25.13ZM171.83,660.01h117.92c11.1,0,20.13-9.03,20.13-20.13v-199.75c0-11.1-9.03-20.13-20.13-20.13h-117.92v240.01h0Z"/>
  <rect class="cls-1" x="537.49" y="291.44" width="5" height="497.13"/>
  <path class="cls-1" d="M540.37,671.19c-72.34,0-131.19-58.85-131.19-131.19s58.85-131.19,131.19-131.19,131.19,58.85,131.19,131.19-58.85,131.19-131.19,131.19ZM540.37,413.81c-69.58,0-126.19,56.61-126.19,126.19s56.61,126.19,126.19,126.19,126.19-56.61,126.19-126.19-56.61-126.19-126.19-126.19Z"/>
</svg>