<?xml version="1.0" encoding="UTF-8"?>
<svg id="Layer_1" xmlns="http://www.w3.org/2000/svg" version="1.1" viewBox="0 0 1080 1080">
  <!-- Generator: Adobe Illustrator 29.5.1, SVG Export Plug-In . SVG Version: 2.1.0 Build 141)  -->
  <defs>
    <style>
      .st0 {
        fill: #191a28;
      }
    </style>
  </defs>
  <path class="st0" d="M987.66,886.68H92.34c-34.8,0-63.11-28.31-63.11-63.11V256.43c0-34.8,28.31-63.11,63.11-63.11h895.32c34.8,0,63.11,28.31,63.11,63.11v567.14c0,34.8-28.31,63.11-63.11,63.11ZM92.34,222.71c-18.6,0-33.72,15.13-33.72,33.72v567.14c0,18.6,15.13,33.72,33.72,33.72h895.32c18.6,0,33.72-15.13,33.72-33.72V256.43c0-18.6-15.13-33.72-33.72-33.72H92.34Z"/>
  <path class="st0" d="M1050.77,718.32h-175.52c-24.77,0-44.92-20.15-44.92-44.92v-266.79c0-24.77,20.15-44.92,44.92-44.92h175.52v356.63ZM875.24,391.06c-8.57,0-15.53,6.97-15.53,15.53v266.79c0,8.57,6.97,15.53,15.53,15.53h146.13v-297.86h-146.13Z"/>
  <path class="st0" d="M205.76,718.32H30.23v-356.63h175.53c24.77,0,44.92,20.15,44.92,44.92v266.79c0,24.77-20.15,44.92-44.92,44.92ZM59.62,688.94h146.15c8.57,0,15.53-6.97,15.53-15.53v-266.79c0-8.57-6.97-15.53-15.53-15.53H59.62v297.86Z"/>
  <rect class="st0" x="525.3" y="196.66" width="29.38" height="686.69"/>
  <path class="st0" d="M540.5,726.58c-102.88,0-186.58-83.7-186.58-186.57s83.7-186.58,186.58-186.58,186.57,83.7,186.57,186.58-83.7,186.57-186.57,186.57ZM540.5,382.81c-86.68,0-157.19,70.52-157.19,157.19s70.52,157.19,157.19,157.19,157.19-70.51,157.19-157.19-70.51-157.19-157.19-157.19Z"/>
</svg>