<?xml version="1.0" encoding="UTF-8"?>
<svg id="Layer_1" data-name="Layer 1" xmlns="http://www.w3.org/2000/svg" viewBox="0 0 1080 1080">
  <defs>
    <style>
      .cls-1 {
        fill: #191a28;
      }
    </style>
  </defs>
  <path class="cls-1" d="M534.98,955.19l-5.17-2.6-354.14-199.45v-422.23l7.1-4.08,357.12-205.05,5.77,3.32,351.74,201.5,6.93,4.36v220.86h-23.18v-194.54l-127.32,72.89-11.52-20.14,7.77-4.42,1.42-.89,117.91-67.43-329.52-188.77-329.31,189.09,329.14,188.25,176.26-100.82,11.51,20.13-8.37,4.77-1.44.93-165.97,95.03v378.91l329.44-185.54v-150.46h23.18v164.03l-5.9,3.32-363.44,199.04ZM198.87,739.58l329.44,185.53v-379.1l-329.44-188.43v382Z"/>
</svg>